<mxfile host="app.diagrams.net" modified="2023-04-11T14:42:59.538Z" agent="Mozilla/5.0 (Windows NT 10.0; Win64; x64) AppleWebKit/537.36 (KHTML, like Gecko) Chrome/112.0.0.0 Safari/537.36" etag="9qKxa1utr2SFwzlFyEsf" version="21.1.5" type="google">
  <diagram name="Page-1" id="23z3jRYuKaMUwR303ihJ">
    <mxGraphModel grid="1" page="1" gridSize="10" guides="1" tooltips="1" connect="1" arrows="1" fold="1" pageScale="1" pageWidth="850" pageHeight="1100" math="0" shadow="0">
      <root>
        <mxCell id="0" />
        <mxCell id="1" parent="0" />
        <mxCell id="M20N1rzqbzr1i554RK-k-5" value="Admin" style="shape=umlActor;verticalLabelPosition=bottom;verticalAlign=top;html=1;outlineConnect=0;" vertex="1" parent="1">
          <mxGeometry x="720" y="300" width="30" height="60" as="geometry" />
        </mxCell>
        <mxCell id="M20N1rzqbzr1i554RK-k-6" value="Customer Visit&lt;br&gt;" style="shape=umlActor;verticalLabelPosition=bottom;verticalAlign=top;html=1;outlineConnect=0;" vertex="1" parent="1">
          <mxGeometry x="120" y="400" width="30" height="60" as="geometry" />
        </mxCell>
        <mxCell id="M20N1rzqbzr1i554RK-k-13" value="Potential Customer" style="shape=umlActor;verticalLabelPosition=bottom;verticalAlign=top;html=1;outlineConnect=0;" vertex="1" parent="1">
          <mxGeometry x="130" y="140" width="30" height="60" as="geometry" />
        </mxCell>
        <mxCell id="M20N1rzqbzr1i554RK-k-14" value="Login" style="ellipse;whiteSpace=wrap;html=1;" vertex="1" parent="1">
          <mxGeometry x="350" y="210" width="130" height="30" as="geometry" />
        </mxCell>
        <mxCell id="M20N1rzqbzr1i554RK-k-15" value="Register" style="ellipse;whiteSpace=wrap;html=1;" vertex="1" parent="1">
          <mxGeometry x="295" y="450" width="130" height="30" as="geometry" />
        </mxCell>
        <mxCell id="M20N1rzqbzr1i554RK-k-17" value="" style="endArrow=none;html=1;rounded=0;entryX=0;entryY=0.5;entryDx=0;entryDy=0;exitX=0.5;exitY=0.5;exitDx=0;exitDy=0;exitPerimeter=0;" edge="1" parent="1" target="M20N1rzqbzr1i554RK-k-14">
          <mxGeometry width="50" height="50" relative="1" as="geometry">
            <mxPoint x="145" y="170" as="sourcePoint" />
            <mxPoint x="390" y="185" as="targetPoint" />
          </mxGeometry>
        </mxCell>
        <mxCell id="M20N1rzqbzr1i554RK-k-18" value="" style="endArrow=none;html=1;rounded=0;exitX=1;exitY=0.5;exitDx=0;exitDy=0;" edge="1" parent="1" source="M20N1rzqbzr1i554RK-k-14" target="M20N1rzqbzr1i554RK-k-5">
          <mxGeometry width="50" height="50" relative="1" as="geometry">
            <mxPoint x="400" y="410" as="sourcePoint" />
            <mxPoint x="450" y="360" as="targetPoint" />
          </mxGeometry>
        </mxCell>
        <mxCell id="M20N1rzqbzr1i554RK-k-19" value="" style="endArrow=none;html=1;rounded=0;entryX=0;entryY=0.5;entryDx=0;entryDy=0;" edge="1" parent="1" source="M20N1rzqbzr1i554RK-k-6" target="M20N1rzqbzr1i554RK-k-15">
          <mxGeometry width="50" height="50" relative="1" as="geometry">
            <mxPoint x="400" y="410" as="sourcePoint" />
            <mxPoint x="450" y="360" as="targetPoint" />
          </mxGeometry>
        </mxCell>
        <mxCell id="M20N1rzqbzr1i554RK-k-20" value="Logout" style="ellipse;whiteSpace=wrap;html=1;" vertex="1" parent="1">
          <mxGeometry x="350" y="250" width="130" height="30" as="geometry" />
        </mxCell>
        <mxCell id="M20N1rzqbzr1i554RK-k-21" value="" style="endArrow=none;html=1;rounded=0;exitX=1;exitY=0.5;exitDx=0;exitDy=0;" edge="1" parent="1" source="M20N1rzqbzr1i554RK-k-20" target="M20N1rzqbzr1i554RK-k-5">
          <mxGeometry width="50" height="50" relative="1" as="geometry">
            <mxPoint x="400" y="410" as="sourcePoint" />
            <mxPoint x="450" y="360" as="targetPoint" />
          </mxGeometry>
        </mxCell>
        <mxCell id="M20N1rzqbzr1i554RK-k-23" value="" style="endArrow=none;html=1;rounded=0;entryX=0;entryY=0.5;entryDx=0;entryDy=0;exitX=0.5;exitY=0.5;exitDx=0;exitDy=0;exitPerimeter=0;" edge="1" parent="1" target="M20N1rzqbzr1i554RK-k-20">
          <mxGeometry width="50" height="50" relative="1" as="geometry">
            <mxPoint x="155" y="180" as="sourcePoint" />
            <mxPoint x="360" y="235" as="targetPoint" />
          </mxGeometry>
        </mxCell>
        <mxCell id="M20N1rzqbzr1i554RK-k-24" value="Manage Product" style="ellipse;whiteSpace=wrap;html=1;" vertex="1" parent="1">
          <mxGeometry x="355" y="300" width="115" height="40" as="geometry" />
        </mxCell>
        <mxCell id="M20N1rzqbzr1i554RK-k-25" value="" style="endArrow=none;html=1;rounded=0;exitX=1;exitY=0.5;exitDx=0;exitDy=0;" edge="1" parent="1" source="M20N1rzqbzr1i554RK-k-24" target="M20N1rzqbzr1i554RK-k-5">
          <mxGeometry width="50" height="50" relative="1" as="geometry">
            <mxPoint x="400" y="410" as="sourcePoint" />
            <mxPoint x="450" y="360" as="targetPoint" />
          </mxGeometry>
        </mxCell>
        <mxCell id="M20N1rzqbzr1i554RK-k-27" value="Manage User" style="ellipse;whiteSpace=wrap;html=1;" vertex="1" parent="1">
          <mxGeometry x="440" y="360" width="110" height="30" as="geometry" />
        </mxCell>
        <mxCell id="M20N1rzqbzr1i554RK-k-28" value="" style="endArrow=none;html=1;rounded=0;" edge="1" parent="1" source="M20N1rzqbzr1i554RK-k-27" target="M20N1rzqbzr1i554RK-k-5">
          <mxGeometry width="50" height="50" relative="1" as="geometry">
            <mxPoint x="400" y="410" as="sourcePoint" />
            <mxPoint x="450" y="360" as="targetPoint" />
          </mxGeometry>
        </mxCell>
        <mxCell id="M20N1rzqbzr1i554RK-k-30" value="Order Management" style="ellipse;whiteSpace=wrap;html=1;" vertex="1" parent="1">
          <mxGeometry x="480" y="410" width="130" height="40" as="geometry" />
        </mxCell>
        <mxCell id="M20N1rzqbzr1i554RK-k-31" value="" style="endArrow=none;html=1;rounded=0;exitX=1;exitY=0.5;exitDx=0;exitDy=0;" edge="1" parent="1" source="M20N1rzqbzr1i554RK-k-30" target="M20N1rzqbzr1i554RK-k-5">
          <mxGeometry width="50" height="50" relative="1" as="geometry">
            <mxPoint x="400" y="410" as="sourcePoint" />
            <mxPoint x="450" y="360" as="targetPoint" />
          </mxGeometry>
        </mxCell>
        <mxCell id="M20N1rzqbzr1i554RK-k-32" value="Order Management" style="ellipse;whiteSpace=wrap;html=1;" vertex="1" parent="1">
          <mxGeometry x="352.5" y="150" width="120" height="40" as="geometry" />
        </mxCell>
        <mxCell id="M20N1rzqbzr1i554RK-k-33" value="" style="endArrow=none;html=1;rounded=0;entryX=0;entryY=0.5;entryDx=0;entryDy=0;exitX=0.5;exitY=0.5;exitDx=0;exitDy=0;exitPerimeter=0;" edge="1" parent="1" source="M20N1rzqbzr1i554RK-k-13" target="M20N1rzqbzr1i554RK-k-32">
          <mxGeometry width="50" height="50" relative="1" as="geometry">
            <mxPoint x="400" y="410" as="sourcePoint" />
            <mxPoint x="450" y="360" as="targetPoint" />
          </mxGeometry>
        </mxCell>
        <mxCell id="M20N1rzqbzr1i554RK-k-34" value="Cart" style="ellipse;whiteSpace=wrap;html=1;" vertex="1" parent="1">
          <mxGeometry x="342.5" y="100" width="127.5" height="30" as="geometry" />
        </mxCell>
        <mxCell id="M20N1rzqbzr1i554RK-k-35" value="" style="endArrow=none;html=1;rounded=0;entryX=0;entryY=0.5;entryDx=0;entryDy=0;" edge="1" parent="1" source="M20N1rzqbzr1i554RK-k-13" target="M20N1rzqbzr1i554RK-k-34">
          <mxGeometry width="50" height="50" relative="1" as="geometry">
            <mxPoint x="400" y="410" as="sourcePoint" />
            <mxPoint x="450" y="360" as="targetPoint" />
          </mxGeometry>
        </mxCell>
        <mxCell id="M20N1rzqbzr1i554RK-k-36" value="Product" style="ellipse;whiteSpace=wrap;html=1;" vertex="1" parent="1">
          <mxGeometry x="200" y="330" width="130" height="40" as="geometry" />
        </mxCell>
        <mxCell id="M20N1rzqbzr1i554RK-k-37" value="" style="endArrow=none;html=1;rounded=0;exitX=0;exitY=0;exitDx=0;exitDy=0;" edge="1" parent="1" source="M20N1rzqbzr1i554RK-k-36" target="M20N1rzqbzr1i554RK-k-13">
          <mxGeometry width="50" height="50" relative="1" as="geometry">
            <mxPoint x="400" y="410" as="sourcePoint" />
            <mxPoint x="450" y="360" as="targetPoint" />
          </mxGeometry>
        </mxCell>
        <mxCell id="M20N1rzqbzr1i554RK-k-38" value="" style="endArrow=none;html=1;rounded=0;exitX=0.5;exitY=0.5;exitDx=0;exitDy=0;exitPerimeter=0;entryX=0;entryY=1;entryDx=0;entryDy=0;" edge="1" parent="1" source="M20N1rzqbzr1i554RK-k-6" target="M20N1rzqbzr1i554RK-k-36">
          <mxGeometry width="50" height="50" relative="1" as="geometry">
            <mxPoint x="400" y="410" as="sourcePoint" />
            <mxPoint x="450" y="360" as="targetPoint" />
          </mxGeometry>
        </mxCell>
        <mxCell id="M20N1rzqbzr1i554RK-k-39" value="Infor" style="ellipse;whiteSpace=wrap;html=1;" vertex="1" parent="1">
          <mxGeometry x="210" y="250" width="120" height="40" as="geometry" />
        </mxCell>
        <mxCell id="M20N1rzqbzr1i554RK-k-40" value="" style="endArrow=none;html=1;rounded=0;exitX=1;exitY=1;exitDx=0;exitDy=0;exitPerimeter=0;entryX=0;entryY=0;entryDx=0;entryDy=0;" edge="1" parent="1" source="M20N1rzqbzr1i554RK-k-13" target="M20N1rzqbzr1i554RK-k-39">
          <mxGeometry width="50" height="50" relative="1" as="geometry">
            <mxPoint x="400" y="410" as="sourcePoint" />
            <mxPoint x="450" y="360" as="targetPoint" />
          </mxGeometry>
        </mxCell>
      </root>
    </mxGraphModel>
  </diagram>
</mxfile>
